<?xml version="1.0" encoding="UTF-8"?>
<svg id="Layer_1" xmlns="http://www.w3.org/2000/svg" version="1.1" viewBox="0 0 24 24">
  <!-- Generator: Adobe Illustrator 29.0.1, SVG Export Plug-In . SVG Version: 2.1.0 Build 192)  -->
  <defs>
    <style>
      .st0, .st1, .st2 {
        isolation: isolate;
      }

      .st1 {
        font-size: 10px;
      }

      .st1, .st2 {
        font-family: CourierNewPS-BoldMT, 'Courier New';
        font-weight: 700;
      }

      .st1, .st2, .st3 {
        fill: #fdfdfe;
      }

      .st2 {
        font-size: 6px;
      }
    </style>
  </defs>
  <path class="st3" d="M19,4v16H6c-.3,0-.5,0-.7-.3-.2-.2-.3-.4-.3-.7s0-.5.3-.7c.2-.2.4-.3.7-.3h11V2H6c-.8,0-1.5.3-2.1.9s-.9,1.3-.9,2.1v14c0,.8.3,1.5.9,2.1.6.6,1.3.9,2.1.9h15V4h-2ZM5,5c0-.3,0-.5.3-.7.2-.2.4-.3.7-.3h9v12H5.5s-.3,0-.5.1V5Z"/>
  <g class="st0">
    <text class="st1" transform="translate(5.2 12.9)"><tspan x="0" y="0">B</tspan></text>
    <text class="st2" transform="translate(11.2 12.9)"><tspan x="0" y="0">r</tspan></text>
  </g>
</svg>